<svg xmlns="http://www.w3.org/2000/svg" viewBox="0 0 145.9 110.42"><defs><linearGradient spreadMethod="pad" id="a" x1="0%" y1="98%" x2="17%" y2="0%"><stop offset="0%" stop-color="#68d391"/><stop offset="100%" stop-color="#4fd1c5"/></linearGradient></defs><g data-name="Capa 2"><path fill="url(#a)" class="cls-1" d="M138 0a7.92 7.92 0 00-7.91 7.92v23.81a3.91 3.91 0 01-7.82 0v-.16A31.57 31.57 0 0092.52.06V0H19.74a19.74 19.74 0 100 39.47H73a9.82 9.82 0 019.82 9.82v35.49a9.83 9.83 0 01-19.65 0V75H67a7.62 7.62 0 002.61-.45 7.9 7.9 0 000-14.91 7.63 7.63 0 00-2.61-.51h-3.88v-3.91a7.9 7.9 0 00-15.36-2.63 7.59 7.59 0 00-.46 2.63v29.56a25.65 25.65 0 0051.3 0V49.3A25.68 25.68 0 0073 23.65H19.71a3.92 3.92 0 010-7.83h70.81a15.91 15.91 0 0115.9 15.9 19.74 19.74 0 0039.48 0V7.92A7.93 7.93 0 00138 0z" data-name="Capa 1"/></g></svg>